PathFileType	4	(X/Y/Z)	67_2_87_p0_0-165.trc
DataRate	CameraRate	NumFrames	NumMarkers	Units	OrigDataRate	OrigDataStartFrame	OrigNumFrames
59.0	59.0	7	27	m	59.0	103	166
Frame#	Time	RHip			RKnee			RAnkle			RBigToe			RSmallToe			RHeel			LHip			LKnee			LAnkle			LBigToe			LSmallToe			LHeel			Neck			Head			Nose			RShoulder			RElbow			RWrist			RThumb			RIndex			RPinky			LShoulder			LElbow			LWrist			LThumb			LIndex			LPinky			
		X1	Y1	Z1	X2	Y2	Z2	X3	Y3	Z3	X4	Y4	Z4	X5	Y5	Z5	X6	Y6	Z6	X7	Y7	Z7	X8	Y8	Z8	X9	Y9	Z9	X10	Y10	Z10	X11	Y11	Z11	X12	Y12	Z12	X13	Y13	Z13	X14	Y14	Z14	X15	Y15	Z15	X16	Y16	Z16	X17	Y17	Z17	X18	Y18	Z18	X19	Y19	Z19	X20	Y20	Z20	X21	Y21	Z21	X22	Y22	Z22	X23	Y23	Z23	X24	Y24	Z24	X25	Y25	Z25	X26	Y26	Z26	X27	Y27	Z27	
103	1.7457627118644068	0.326062086098013	0.7238084913889749	-0.07304915264151131	0.34183875679838605	0.699478106003558	0.31013129008054285	0.31827729539980537	0.8776453215383737	0.7656125553984421	0.3579925282253595	0.6534128089442598	0.8086475184987169	0.39640731747387054	0.701099943170395	0.8021943973775952	0.30902180355126446	0.913447696818879	0.8015711448163557	0.17144637328535728	0.6104309175007014	-0.11084757349585896	0.1995997383443996	0.6901342822658908	0.3119044168321899	0.1820925113460991	0.8372829905519936	0.7410681394322047	0.21312743942127296	0.6800739143153924	0.8125550603507644	0.16034529955109503	0.6583756382426084	0.7811518448441133	0.18917871807888761	0.9207025897456347	0.8236165568574363	0.49417518054010756	0.29963843160144804	-0.28994732079872154	0.6591338212761327	0.11605632137282701	-0.4553358191299683	0.6207980815112282	0.1456497262796096	-0.3147107761909713	0.5941844843087667	0.4137087432026135	-0.24433601566931665	0.5493427965970157	0.4758579725192415	-0.0032378833672206467	0.6110106722813954	0.274159834890673	0.18360634246296242	0.6891980366514672	0.14109229970387138	0.22630683581113187	0.7078762910843188	0.19202778095090078	0.2457035655438552	0.6786474719700322	0.29642158850459205	0.23395087107627643	0.35048588867246794	0.3305130800632097	-0.35725857509664	0.16133137685846452	0.4842799849227544	-0.3595543028244696	0.022847171306113617	0.679512806318257	-0.23884476638071164	0.02578773397688925	0.787967782508221	-0.15357742551900452	-0.005692618099408738	0.7737607363306883	-0.15478036396893913	-0.002673699786576877	0.73111040864822	-0.1670687602797499
104	1.7627118644067796	0.326524225357099	0.7224017114858029	-0.0830294665952251	0.3419018501778041	0.6950727014704255	0.3006257351208633	0.31956446725330345	0.8765742207189461	0.7561687129078107	0.3592354620964179	0.6574540387998723	0.8131030396368834	0.39717127527729257	0.702057773234666	0.8018040411419077	0.30986825636306936	0.9141490511733757	0.8012826512185369	0.17850528970076654	0.5918411901441791	-0.12490677309971591	0.19945688559648947	0.6900042614492184	0.30790580525050676	0.18303418855235806	0.8416193801907966	0.7461159733843865	0.2130806317051352	0.6799900308506764	0.812551803500734	0.16255352099714307	0.6734345531710343	0.7852428419295749	0.18949580731905416	0.9216326783628029	0.8237353495659254	0.4939040798735094	0.29107518698748935	-0.3132160442498252	0.6579857608696644	0.1115756893344887	-0.47489024865050194	0.617522430909723	0.16349018130203824	-0.33081922809105446	0.5936575919715166	0.3998913127864108	-0.2558053153863412	0.5400659607050405	0.48625521403016264	-0.022084540576332627	0.6021340722672694	0.3071997100517422	0.1628617076266701	0.6924175439155296	0.1557083219784375	0.20152549860533955	0.7081865047696881	0.20365039741683993	0.2302189837182304	0.6618842733715764	0.3123066659041698	0.228981799669245	0.35150470922272925	0.28427255856752365	-0.3753027154939502	0.16327438504187744	0.4685956366843874	-0.35888915981374025	0.029482476518598342	0.665335879643408	-0.2344713019369492	0.02926838545503648	0.7891196167634607	-0.161137452063657	0.006933844015310196	0.7396251604644922	-0.16223477676722944	0.0025532705116592595	0.7134101679139045	-0.16711678257441173
105	1.7796610169491525	0.3238290744867879	0.7067498284003386	-0.09178302017454407	0.33828691796408317	0.679975926394381	0.28980904379252365	0.3232831055360112	0.8944287454777322	0.7550807722676048	0.3493007001999863	0.6688045230862489	0.8127339297704895	0.39430668222514514	0.7161585080361174	0.8024356328921415	0.3127233910586473	0.9321704013203946	0.8054974997872746	0.1856517735982216	0.5977225082811733	-0.12818827094664492	0.20354925023810144	0.7061672808118689	0.301005317172306	0.18791856303596963	0.8464491490393106	0.746822020485934	0.21297358740471942	0.6799659655258595	0.8124673903446524	0.16256103777299485	0.6738158336722524	0.7851576155174814	0.19128366624419924	0.9198236794754507	0.8175344291641825	0.4897249630474435	0.28406061186590953	-0.3354587770130959	0.653630209851177	0.11850686121917091	-0.5072938347581907	0.6104507113951165	0.14409385631839644	-0.3615894945365687	0.5905137492109711	0.37501492284542903	-0.2883626676291062	0.5441363106704482	0.48369820634389993	-0.04243327359593694	0.5881091458589208	0.30503456091532094	0.14682871466208477	0.6899674585792342	0.17565269420529545	0.1974776403707804	0.7037176602821548	0.2047724251612686	0.21348223901609498	0.6672075624216668	0.3085519356162163	0.20250008260560085	0.34678881256820177	0.2951708549373194	-0.3805722262135589	0.1630745029599077	0.4688138233488099	-0.35891332757059613	0.02986075738619043	0.6649425749715632	-0.22994279461367514	0.03976531288243704	0.775881546684051	-0.1648903863486346	0.015303146501710633	0.739419696882188	-0.16134069206421564	0.009988420942112216	0.7187623263288639	-0.16273112380258917
106	1.7966101694915255	0.32438832971776377	0.7095045553524153	-0.09188515479178495	0.3375089647819337	0.7155714500709454	0.2985455801786	0.32332076784125674	0.8946576492845915	0.7550277528702258	0.3494811360553447	0.6694885862034428	0.8127815027205043	0.3945695076686301	0.7180750247769029	0.8023088317755298	0.3123478791067457	0.9272392885541388	0.79981689659984	0.1852120124357649	0.6049197680907953	-0.1272716043628372	0.20369447791192877	0.707457934573366	0.2968799429200955	0.18815765015105612	0.8467873658929334	0.7468780200392795	0.22229772016529942	0.6789952199592227	0.8114490770110333	0.1628206717887129	0.6739025629078313	0.7851899260508459	0.19231970555388886	0.9250734872397992	0.822487549123052	0.4924613663547491	0.28211691809327977	-0.35257223133056087	0.6396926281712283	0.12815947414228396	-0.5326331217179929	0.6102899235053961	0.13741728497816294	-0.3903860518437397	0.5818586997454608	0.37064698165327425	-0.30367951994793496	0.530227588890057	0.4950826445157006	-0.06458726911976083	0.5838186863771947	0.3182057411805517	0.12905872713911576	0.6955775690201732	0.18373603243960757	0.18865162961044282	0.7036138460214919	0.2037721123588529	0.19891864018510275	0.6533818492060857	0.305986912074822	0.19398862456984942	0.35404642899502836	0.2926170479001173	-0.38785091465613053	0.1628209735034553	0.46082831750916725	-0.3780274238145629	0.03597007744894317	0.6465357414440617	-0.23300439546598184	0.04206651921061091	0.7843710888790366	-0.17144854256394065	0.01673262439666535	0.7518661027159919	-0.1554164427613917	0.006822495810149301	0.702100862796228	-0.1569375430595551
107	1.8135593220338984	0.3386920763052951	0.7152641292361295	-0.10399169767939039	0.3370028986907426	0.713180720725834	0.29346507615291423	0.32344182077322814	0.8939792620953253	0.7594731482931287	0.35425753728084564	0.6718860749697891	0.8133674255828416	0.394174398718772	0.7192879398675515	0.8024840893213727	0.31172230564027326	0.9284101383817461	0.8004069815098215	0.18320927642217738	0.5876664653082584	-0.15364316965642738	0.20351697133616203	0.7058271681850846	0.29155203455450834	0.1877990119576139	0.8463415451083451	0.7471297396294556	0.2148346683978784	0.6813167758598466	0.8122579283345094	0.16259848029003143	0.6739057983119247	0.7855344410886274	0.19210823867768886	0.924058899878434	0.8223434453295003	0.49195106388131954	0.2920803898577854	-0.37168673360514104	0.6370435241095866	0.11990024272983314	-0.5521806422558839	0.6054771064724644	0.12165979475878494	-0.41426908075427255	0.591393891779474	0.4093827005518277	-0.31110551610609066	0.5290724065131466	0.49005278468266966	-0.08055261165701173	0.5830380113010815	0.3166443513998149	0.12145201286953795	0.6930047272975364	0.19425334230167207	0.1786788775727802	0.6970026770455463	0.21322549663722934	0.1826379515152987	0.6447042017026736	0.3023653348218525	0.1858520419431547	0.34263309885527177	0.3036612390185414	-0.40351874365592577	0.15778000002067816	0.4721844077450789	-0.3866508891775607	0.033478407478122654	0.6311805200276617	-0.22822208818295742	0.05199741390344081	0.7693738557955875	-0.16636127896066405	0.02315375843832953	0.734587297413966	-0.14780736912376358	0.016543745605175467	0.6846759572693668	-0.15254412756980323
108	1.8305084745762712	0.3385860129317537	0.7082942650588412	-0.11596713119919518	0.3382372896538902	0.6785154854086032	0.2842511105357776	0.3246193966953885	0.8939503827545876	0.7498453855949729	0.3577180874521651	0.6862010689261369	0.8091789208944845	0.39789917159907173	0.7404291727939739	0.8021692880531806	0.31263897388612116	0.9258669908371098	0.7961822064107357	0.18373951087092172	0.5852078087200691	-0.16329086572699777	0.19557739923957213	0.7081973177937205	0.2872746040502176	0.18837674819857622	0.8483538119605227	0.7467545694850726	0.21268231802456208	0.6925477589576899	0.8155004051428363	0.16763570852964088	0.7062737238626827	0.7974672263562279	0.19308192178514996	0.9242201097771577	0.8124411775776914	0.4830101125697277	0.27962363452556416	-0.40352776065188006	0.6222199870489492	0.12391156270720921	-0.5841840177604607	0.5952381416381816	0.10150409584210764	-0.44419153913899223	0.5912969570115041	0.4194054457976797	-0.32326602649447683	0.5268835470459634	0.5113755376104722	-0.10170867884680806	0.5802686335435598	0.34222503060583503	0.11920163545287299	0.6760885297101975	0.24150840961671327	0.17160531009493823	0.690336751882499	0.248457493564507	0.18070934423002735	0.6428141976644672	0.3163697966542659	0.18037657277784447	0.3307895598881842	0.29820284416349174	-0.429262833919424	0.15818510877883588	0.4722411248204447	-0.38983731262954924	0.04378250903966837	0.6136812778402435	-0.23523157550639348	0.07704579965840858	0.7194967883077061	-0.16667159157652794	0.030180367433742764	0.7153730532484751	-0.15284674973666867	0.016401818071233847	0.6782629822450388	-0.16158962381536426
109	1.847457627118644	0.3375060869697313	0.7004542839515381	-0.10763009671463533	0.33356883724598885	0.6958239926400795	0.2814529543477991	0.3247283466448375	0.8936751607780514	0.7496498380886841	0.35805158153850425	0.6841040681604883	0.8132033158876161	0.398174241443774	0.7372051482905814	0.8018921582793078	0.3130609656362395	0.9242990606863548	0.7957792604101585	0.18426732061331616	0.5873040315619019	-0.1584041817966765	0.19746041016368032	0.718069142558874	0.2800930432075176	0.19116202468776194	0.8635538679484044	0.7502991766422165	0.21749635666940498	0.6756690369116907	0.8105287746827002	0.1676798335978377	0.7061633573312435	0.797340680117575	0.1943558649636965	0.9258915252841572	0.8169040596949615	0.49083235689073995	0.2898976831922852	-0.41672387726461285	0.609017045235297	0.10558845490583608	-0.6048454275018444	0.5881892653788269	0.0993839971574351	-0.4589968033713838	0.5863507289486319	0.4012783798344765	-0.3479258637098037	0.5260677062227056	0.5104481766448434	-0.11552889964487628	0.5837149947990281	0.3544101312394514	0.11267408628424459	0.6692474419743373	0.24862609652754664	0.17092258714061698	0.677056266113261	0.29093622537923874	0.1878800357942499	0.638501964515414	0.32071796643688255	0.18527489444741044	0.3296436046031212	0.3227042180244198	-0.43971020216313095	0.15843401980461888	0.47047880201504355	-0.3962223890847501	0.04556246233285861	0.6254381127866626	-0.2395626495567567	0.08428732017946952	0.6907553976314699	-0.16448862545945084	0.028307013742810402	0.6983942995179366	-0.1483089586060737	0.016504255867266535	0.679818703361952	-0.15358920005198093
